<?xml version="1.0" ?><!DOCTYPE svg  PUBLIC '-//W3C//DTD SVG 1.1//EN'  'http://www.w3.org/Graphics/SVG/1.1/DTD/svg11.dtd'><svg height="512px" style="enable-background:new 0 0 512 512;" version="1.1" viewBox="0 0 512 512" width="512px" xml:space="preserve" xmlns="http://www.w3.org/2000/svg" xmlns:xlink="http://www.w3.org/1999/xlink"><g id="_x33_0_x2C__Animal_x2C__Bear_x2C__Polar_x2C__Canada"><g><path d="M188.229,242.473c-0.07-0.236-0.138-0.461-0.208-0.694c-5.944-19.854-9.537-28.56-14.063-32.965    c-1.849-1.249-3.14-2.197-3.783-2.68c-0.323-0.164-0.649-0.325-0.995-0.478c-0.129-0.057-0.269-0.11-0.402-0.166    c-0.28-0.118-0.566-0.233-0.861-0.345c-0.237-0.089-0.48-0.177-0.729-0.264c-0.174-0.061-0.353-0.121-0.531-0.18    c-2.694-0.895-6.066-1.686-10.494-2.679c-0.133-0.03-0.255-0.058-0.39-0.088c-0.257-0.058-0.531-0.119-0.794-0.178    c-0.218-0.049-0.433-0.097-0.655-0.147c-0.248-0.056-0.5-0.113-0.754-0.17c-0.34-0.077-0.684-0.155-1.033-0.235    c-0.245-0.056-0.487-0.111-0.736-0.168c-0.473-0.109-0.956-0.221-1.447-0.335c-0.129-0.03-0.253-0.058-0.384-0.089    c-0.603-0.142-1.223-0.29-1.853-0.441c-0.207-0.05-0.418-0.102-0.628-0.153c-0.473-0.115-0.953-0.233-1.44-0.354    c-0.218-0.054-0.435-0.108-0.656-0.164c-0.622-0.156-1.254-0.317-1.9-0.485c-0.077-0.02-0.151-0.039-0.228-0.059    c-0.024-0.006-0.046-0.012-0.07-0.018l-27.556,103.332c-0.583,2.189-2.566,3.721-4.831,3.721    c-11.666,0-21.331,9.009-22.805,20.009h61.621l38.747-83.038C188.324,242.804,188.275,242.63,188.229,242.473z"/><path d="M469.13,292.608c-0.604-1.032-1.232-2.11-1.879-3.255c-13.055-23.129-9.919-35.902-4.723-57.063    c0.544-2.217,1.114-4.541,1.696-6.998l0.082-0.35c4.962-20.997,11.136-47.129,4.839-66.952    c-7.263-22.773-26.166-62.235-71.146-70.599c-9.527-1.76-21.187-2.691-33.711-2.691c-12.034,0-24.706,0.879-35.684,2.474    c-3.143,0.455-6.359,0.976-9.765,1.528c-7.828,1.27-15.922,2.582-23.463,3.104c-2.194,0.151-4.163,0.225-6.021,0.225    c-12.199,0-18.444-3.332-27.28-8.82c-16.167-10.058-34.946-9.525-53.964,1.322c-21.686,12.358-33.888,13.734-63.23,14.515    c-2.048,0.057-4.069,0.124-6.081,0.191c-3.781,0.125-7.69,0.254-11.647,0.31l-0.553,0.003c-5.649,0-7.687-1.462-10.119-4.741    c-0.792-1.067-1.777-2.395-3.819-4.254c-2.134-1.946-3.339-2.754-3.961-3.088c-1.555,2.038-4.008,8.884-5.38,12.714    c-0.452,1.263-0.8,2.311-1.091,3.187c-2.017,6.062-3.168,7.223-9.479,9.557c-2.747,1.016-6.898,2.551-13.738,5.781    c-6.155,2.916-6.155,2.916-8.209,7.689c-0.625,1.453-1.403,3.262-2.491,5.522c-1.954,4.063-3.837,5.146-7.318,6.034    c-0.439,0.112-0.95,0.242-1.555,0.419c-13.698,4.024-20.566,7.808-21.937,9.415c0.053,1.563,2.315,7.299,12.586,18.341l0.07,0.076    c3.517,3.738,7.885,4.159,15.941,4.63c2.948,0.172,6.289,0.368,9.911,0.842c3.165,0.423,6.462,0.814,9.651,1.193    c7.902,0.939,16.074,1.91,23.579,3.484c4.694,0.987,8.039,2.533,11.912,4.323c3.902,1.804,8.325,3.848,15.717,6.094    c1.43,0.434,2.811,0.837,4.148,1.215c6.685,1.892,12.133,3.113,16.939,4.19c0.022,0.005,0.043,0.01,0.066,0.015    c7.168,1.606,12.379,2.784,16.944,5.159c0.022,0.01,0.043,0.021,0.065,0.032c0.037,0.019,0.075,0.035,0.111,0.054    c1.854,0.981,3.521,2.125,5.059,3.498c9.371,6.198,32.219,19.381,51.538,15.164c2.696-0.586,5.363,1.121,5.951,3.819    s-1.122,5.362-3.819,5.951c-3.295,0.719-6.645,1.04-9.986,1.04c-11.777,0-23.524-3.975-33.058-8.476    c1.833,4.715,3.717,10.42,5.833,17.37c0.174,0.571,0.35,1.15,0.527,1.738c0.118,0.391,0.236,0.784,0.355,1.183    c0.313,1.047,0.63,2.112,0.955,3.212c0.655,2.224,1.335,4.553,2.047,7.021c4.283,14.826,10.851,47.678,11.395,65.403    c0.055,1.803-0.864,3.495-2.407,4.43l-0.632,0.383c-9.403,5.694-15.323,9.279-17.653,16.852l72.751-0.019    c0.435-2.347,0.482-4.37,0.542-6.869c0.17-7.186,0.383-16.128,9.46-39.246l0.737-1.888c13.687-35.068,17.021-41.693,18.586-43.628    c0.013-0.016,0.028-0.027,0.041-0.043c0.011-0.013,0.017-0.027,0.027-0.04c0.211-0.251,21.473-25.956,14.58-52.029    c-0.706-2.67,0.887-5.406,3.556-6.112c2.673-0.706,5.406,0.886,6.112,3.556c6.371,24.103-6.438,46.708-13.041,56.272    c0.591,0.388,1.192,0.791,1.817,1.21c3.675,2.466,7.841,5.26,13.457,7.512c0.76,0.302,1.96,0.565,3.12,0.819    c2.354,0.517,4.79,1.051,6.816,2.434c0.257,0.175,0.496,0.374,0.716,0.594c2.305,2.305,2.398,5.356,2.497,8.587    c0.162,5.308,0.407,13.327,9.925,23.161c1.535,1.582,6.531,4.634,9.587,6.294c2.192,1.19,3.171,3.814,2.295,6.15    c-2.323,6.189-10.293,26.774-15.328,31.787c-0.436,0.432-0.938,0.885-1.474,1.365c-0.07,0.063-0.146,0.131-0.226,0.202    l59.375,0.479c0.359-0.607,0.695-1.128,1-1.599c0.755-1.166,1.18-1.823,1.588-3.213c0.414-1.86,0.789-3.606,1.14-5.237    c2.396-11.146,4.083-18.942,10.365-20.618c9.504-8.198,0.907-34.113-3.025-42.877c-1.131-2.52-0.005-5.479,2.515-6.608    c2.517-1.133,5.478-0.005,6.608,2.514c1.687,3.759,14.12,32.74,4.851,49.166c1.308,0.7,2.723,1.539,4.311,2.57    c1.674,1.082,4.33,2.303,6.899,3.482c3.336,1.532,6.486,2.98,8.569,4.577c1.696,1.3,2.379,3.535,1.697,5.562    c-1.479,4.399-3.914,7.737-6.062,10.684c-0.248,0.34-0.494,0.678-0.737,1.015l30.794,0.03c1.981-3.962,4.961-14.649,6.175-21.676    C475.686,303.831,473.494,300.08,469.13,292.608z M122.838,135.983c-2.761,0-5.005-2.23-5.005-4.992    c0-2.761,2.234-4.991,4.995-4.991h0.01c2.762,0,5,2.23,5,4.991C127.838,133.753,125.6,135.983,122.838,135.983z"/><path d="M272.809,396h-190c-2.761,0-5,2.238-5,5s2.239,5,5,5h190c2.762,0,5-2.238,5-5S275.57,396,272.809,396z"/><path d="M372.809,426h-80c-2.762,0-5,2.238-5,5s2.238,5,5,5h80c2.762,0,5-2.238,5-5S375.57,426,372.809,426z"/></g></g><g id="Layer_1"/></svg>