<?xml version="1.0" ?><svg viewBox="0 0 64 64" xmlns="http://www.w3.org/2000/svg"><title/><g data-name="10-Backpack" id="_10-Backpack"><path d="M54,42H53V31A21,21,0,0,0,39,11.21,1.55,1.55,0,0,0,39,11a7,7,0,0,0-14,0,1.55,1.55,0,0,0,0,.21A21,21,0,0,0,11,31V42H10a5,5,0,0,0-5,5v6a3,3,0,0,0,3,3h3v1a3,3,0,0,0,3,3H50a3,3,0,0,0,3-3V56h3a3,3,0,0,0,3-3V47A5,5,0,0,0,54,42ZM32,6a5,5,0,0,1,5,4.62,20.15,20.15,0,0,0-9.92,0A5,5,0,0,1,32,6ZM13,31a19,19,0,0,1,38,0V50H45V45a3,3,0,0,0-3-3H22a3,3,0,0,0-3,3v5H13V31ZM43,45v8a1,1,0,0,1-1,1H22a1,1,0,0,1-1-1V45a1,1,0,0,1,1-1H42A1,1,0,0,1,43,45ZM8,54a1,1,0,0,1-1-1V47a3,3,0,0,1,3-3h1V54Zm43,3a1,1,0,0,1-1,1H14a1,1,0,0,1-1-1V52h6v1a3,3,0,0,0,3,3H42a3,3,0,0,0,3-3V52h6v5Zm6-4a1,1,0,0,1-1,1H53V44h1a3,3,0,0,1,3,3Z"/><path d="M28,24h8a3,3,0,0,0,3-3V19a3,3,0,0,0-3-3H28a3,3,0,0,0-3,3v2A3,3,0,0,0,28,24Zm-1-5a1,1,0,0,1,1-1h8a1,1,0,0,1,1,1v2a1,1,0,0,1-1,1H28a1,1,0,0,1-1-1Z"/></g></svg>