<?xml version="1.0" ?><!DOCTYPE svg  PUBLIC '-//W3C//DTD SVG 1.1//EN'  'http://www.w3.org/Graphics/SVG/1.1/DTD/svg11.dtd'><svg enable-background="new 0 0 38 43" height="43px" id="Layer_1" version="1.1" viewBox="0 0 38 43" width="38px" xml:space="preserve" xmlns="http://www.w3.org/2000/svg" xmlns:xlink="http://www.w3.org/1999/xlink"><path d="M29,17c0,0.552-0.447,1-1,1H10c-0.552,0-1-0.448-1-1v-2c0-0.552,0.448-1,1-1h18c0.553,0,1,0.448,1,1V17z" fill="#231F20"/><path d="M29,24c0,0.553-0.447,1-1,1H10c-0.552,0-1-0.447-1-1v-2c0-0.552,0.448-1,1-1h18c0.553,0,1,0.448,1,1V24z" fill="#231F20"/><path d="M29,31c0,0.553-0.447,1-1,1H10c-0.552,0-1-0.447-1-1v-2c0-0.553,0.448-1,1-1h18c0.553,0,1,0.447,1,1V31z" fill="#231F20"/><path d="M29,10c0,0.552-0.447,1-1,1H10c-0.552,0-1-0.448-1-1V8c0-0.552,0.448-1,1-1h18c0.553,0,1,0.448,1,1V10z" fill="#231F20"/><path d="M0-2v43h38V-2H0z M34,36H4V3h30V36z" fill="#231F20"/></svg>