<?xml version="1.0" ?><!DOCTYPE svg  PUBLIC '-//W3C//DTD SVG 1.1//EN'  'http://www.w3.org/Graphics/SVG/1.1/DTD/svg11.dtd'><svg height="512px" style="enable-background:new 0 0 512 512;" version="1.1" viewBox="0 0 512 512" width="512px" xml:space="preserve" xmlns="http://www.w3.org/2000/svg" xmlns:xlink="http://www.w3.org/1999/xlink"><g id="_x31_55_x2C__Open_x2C__Book_x2C__Page_x2C__Layout_x2C__Cover"><g id="XMLID_5067_"><g><path d="M282,421c-9.62,0-18.66-3.75-25.46-10.55C249.75,403.66,246,394.62,246,385V147c0-9.44,3.63-18.35,10.2-25.11     c6.57-6.74,15.36-10.6,24.75-10.87l18.04-3.54c0.64-0.13,1.29-0.19,1.93-0.19c4.76,0,8.89,3.4,9.81,8.08     c0.511,2.62-0.029,5.28-1.52,7.5c-1.49,2.21-3.75,3.72-6.37,4.23l-18.91,3.71c-0.58,0.12-1.34,0.19-1.93,0.19     c-8.811,0.02-15.98,7.19-16,16v238c0.01,8.5,6.67,15.52,15.149,15.979l156.92-30.79c0.58-0.12,1.33-0.189,1.931-0.189     c8.81-0.021,15.979-7.19,16-16V116c-0.021-8.51-6.681-15.52-15.16-15.98l-39.87,7.83c-0.64,0.12-1.29,0.19-1.939,0.19     c-4.36,0-8.29-2.92-9.561-7.09c0-0.01,0-0.01,0-0.01l-0.07-0.26c-0.05-0.18-0.1-0.37-0.14-0.55c-0.01-0.05-0.02-0.11-0.03-0.17     c-1.029-5.23,2.21-10.34,7.38-11.63c0.171-0.04,0.341-0.07,0.511-0.11l40.949-8.03C438.66,80.07,439.41,80,440,80     c9.62,0,18.66,3.75,25.45,10.54c6.8,6.8,10.55,15.84,10.55,25.46v238c0,9.439-3.63,18.35-10.2,25.109     c-6.57,6.74-15.36,10.601-24.75,10.87l-157.12,30.83C283.34,420.93,282.59,421,282,421z M349.97,117.67     c-4.76-0.01-8.89-3.4-9.81-8.08c-0.511-2.62,0.029-5.29,1.52-7.5c1.49-2.22,3.75-3.73,6.37-4.24c0.64-0.12,1.29-0.19,1.94-0.19     c4.76,0,8.88,3.4,9.8,8.08c1.06,5.41-2.48,10.68-7.891,11.74C351.26,117.6,350.609,117.67,349.97,117.67z"/></g><g><path d="M230,421c-0.59,0-1.35-0.07-1.92-0.19l-157.15-30.83c-9.38-0.27-18.17-4.13-24.73-10.88C39.63,372.35,36,363.43,36,354     V116c0-9.62,3.75-18.66,10.54-25.45C53.34,83.75,62.38,80,72,80c0.59,0,1.35,0.07,1.93,0.19l40.95,8.03     c1.97,0.39,3.75,1.34,5.16,2.76c1.83,1.83,2.86,4.26,2.92,6.84c0,0.08,0,0.17,0,0.25c0,0.63-0.07,1.27-0.19,1.89     c-0.92,4.68-5.04,8.08-9.8,8.08c-0.65,0-1.3-0.07-1.94-0.19l-39.89-7.83C62.67,100.48,56.02,107.5,56,116v238     c0.02,8.81,7.19,15.979,16,16c0.6,0,1.36,0.069,1.93,0.189l156.93,30.79c8.47-0.46,15.12-7.479,15.14-15.979V147     c-0.02-8.8-7.19-15.98-16-16c-0.59,0-1.35-0.07-1.92-0.19l-18.92-3.71c-5.41-1.06-8.95-6.32-7.89-11.74     c0.92-4.68,5.04-8.07,9.8-8.07c0.65,0,1.3,0.06,1.94,0.19l18.04,3.54c9.39,0.27,18.18,4.13,24.75,10.87     c6.57,6.76,10.2,15.68,10.2,25.11v238c0,9.62-3.75,18.66-10.55,25.45C248.66,417.25,239.62,421,230,421z M162.03,117.67     c-0.64,0-1.29-0.07-1.93-0.19c-2.62-0.52-4.89-2.02-6.38-4.24c-1.49-2.22-2.02-4.88-1.51-7.5c0.92-4.68,5.04-8.08,9.8-8.08     c0.65,0,1.3,0.06,1.94,0.19c5.41,1.06,8.95,6.33,7.88,11.74C170.92,114.27,166.8,117.67,162.03,117.67z"/></g></g></g><g id="Layer_1"/></svg>